<?xml version="1.0" standalone="no"?>
<!DOCTYPE svg PUBLIC "-//W3C//DTD SVG 20010904//EN"
 "http://www.w3.org/TR/2001/REC-SVG-20010904/DTD/svg10.dtd">
<svg version="1.0" xmlns="http://www.w3.org/2000/svg"
 width="300.000000pt" height="300.000000pt" viewBox="0 0 300.000000 300.000000"
 preserveAspectRatio="xMidYMid meet">
<metadata>
Created by potrace 1.14, written by Peter Selinger 2001-2017
</metadata>
<g transform="translate(0.000000,300.000000) scale(0.100000,-0.100000)"
fill="#000000" stroke="none">
<path d="M596 2643 c-3 -10 -87 -389 -186 -843 -275 -1253 -320 -1460 -320
-1470 0 -6 102 -10 270 -10 l270 0 5 23 c5 20 317 1462 331 1530 3 16 8 27 10
24 2 -2 42 -210 89 -463 47 -252 90 -483 96 -511 l10 -53 198 0 197 0 299 484
c165 267 300 484 301 483 1 -1 -71 -337 -162 -747 -90 -410 -164 -751 -164
-757 0 -10 63 -13 284 -13 l284 0 16 68 c8 37 121 557 251 1157 130 600 238
1096 240 1103 3 9 -67 12 -333 12 l-337 0 -375 -587 c-206 -322 -376 -580
-378 -572 -1 8 -56 270 -121 584 l-118 570 -326 3 c-304 2 -326 1 -331 -15z"/>
</g>
</svg>
